<?xml version="1.0" standalone="no"?>
<!DOCTYPE svg PUBLIC "-//W3C//DTD SVG 20010904//EN"
 "http://www.w3.org/TR/2001/REC-SVG-20010904/DTD/svg10.dtd">
<svg version="1.0" xmlns="http://www.w3.org/2000/svg"
 width="900.000000pt" height="867.000000pt" viewBox="0 0 900.000000 867.000000"
 preserveAspectRatio="xMidYMid meet">

<g transform="translate(0.000000,867.000000) scale(0.100000,-0.100000)"
fill="#000000" stroke="none">
<path d="M3840 8663 c-667 -39 -1384 -271 -1935 -626 -463 -299 -821 -637
-1136 -1072 -417 -577 -666 -1237 -751 -1990 -18 -164 -15 -667 6 -835 102
-838 400 -1541 922 -2178 91 -110 366 -391 469 -478 291 -247 569 -430 878
-579 466 -225 938 -356 1447 -402 47 -5 220 -8 385 -7 251 0 328 4 470 23
1127 149 2101 718 2782 1626 176 235 357 555 488 861 126 293 237 707 275
1019 6 50 13 104 15 120 35 237 22 798 -25 1065 -5 30 -12 73 -15 95 -4 22
-22 108 -41 190 -185 806 -625 1561 -1228 2105 -656 591 -1425 939 -2311 1046
-120 14 -558 25 -695 17z m-353 -1413 c50 -30 64 -62 79 -173 7 -56 14 -109
14 -117 0 -10 29 -25 86 -45 48 -16 119 -45 158 -65 l71 -36 89 70 c79 62 94
70 141 74 34 3 61 -1 81 -11 16 -8 93 -80 171 -159 118 -119 142 -149 148
-181 11 -58 -8 -103 -81 -195 l-66 -83 35 -77 c19 -42 46 -108 58 -147 13 -38
25 -71 26 -73 1 -2 51 -10 112 -17 123 -15 159 -30 193 -77 22 -32 23 -42 26
-238 3 -197 2 -207 -20 -250 -32 -62 -66 -78 -197 -94 -62 -8 -113 -15 -115
-17 -1 -2 -17 -44 -35 -94 -18 -49 -47 -116 -63 -147 l-30 -57 76 -97 c79
-102 93 -136 81 -201 -5 -32 -30 -61 -157 -185 -206 -202 -229 -207 -384 -86
-44 33 -85 65 -91 71 -8 6 -43 -4 -105 -31 -51 -21 -118 -47 -148 -57 -30 -10
-58 -21 -63 -24 -4 -4 -14 -63 -22 -132 -14 -109 -19 -128 -44 -159 -42 -52
-72 -59 -286 -59 -179 -1 -194 0 -235 22 -59 29 -77 64 -90 172 -16 134 -20
159 -28 166 -4 4 -32 14 -62 24 -30 10 -91 35 -135 56 -43 22 -80 39 -81 39
-1 0 -44 -34 -95 -75 -170 -136 -194 -132 -392 64 -146 143 -167 171 -169 224
-2 53 11 77 93 180 l78 99 -36 71 c-20 40 -46 101 -58 137 l-22 65 -124 15
c-143 18 -180 34 -209 91 -20 38 -21 55 -18 252 3 201 4 214 25 243 33 46 75
61 200 75 l112 12 21 70 c12 38 39 107 60 152 l38 83 -67 83 c-37 46 -73 95
-80 107 -15 29 -17 103 -2 129 13 26 286 294 314 310 28 16 102 16 130 1 12
-6 58 -40 103 -74 l81 -63 79 40 c43 21 115 51 160 66 l81 26 12 111 c13 123
28 158 81 193 32 22 41 23 249 23 196 0 219 -2 248 -20z m2316 -1629 c43 -28
58 -55 81 -149 l21 -85 70 -18 c39 -10 98 -29 131 -42 l62 -25 48 50 c62 63
91 78 152 78 54 0 56 -2 196 -119 147 -123 158 -166 77 -294 l-49 -77 60 -118
59 -117 87 -6 c169 -11 192 -44 207 -300 11 -176 -14 -211 -169 -243 -44 -9
-81 -17 -82 -19 -1 -1 -12 -38 -24 -82 -11 -44 -30 -100 -41 -124 l-20 -45 39
-40 c70 -73 84 -91 93 -114 11 -30 12 -84 0 -114 -16 -41 -197 -244 -230 -258
-53 -22 -110 -8 -192 47 l-74 49 -65 -38 c-36 -21 -91 -48 -122 -61 l-58 -22
0 -88 c0 -95 -13 -139 -51 -174 -35 -31 -86 -41 -240 -49 -128 -6 -139 -6
-170 14 -47 29 -63 62 -84 168 l-17 92 -40 6 c-22 4 -76 20 -119 37 l-79 31
-79 -70 c-127 -112 -160 -108 -335 40 -160 136 -168 171 -76 312 28 42 50 81
50 86 0 5 -13 31 -30 58 -16 26 -41 74 -55 105 l-26 57 -90 0 c-69 0 -99 4
-128 19 -63 33 -72 56 -88 233 -14 152 -14 159 4 195 27 53 69 78 156 93 41 7
79 15 83 19 5 3 18 39 28 80 10 41 28 96 39 123 l20 48 -61 64 c-67 69 -82 98
-82 152 0 47 9 62 112 184 143 168 179 176 334 73 l51 -34 65 40 c36 22 92 51
124 64 l59 25 10 100 c10 98 17 117 60 154 23 20 52 27 157 38 137 14 210 12
241 -9z m-1899 -1555 c47 -20 76 -66 86 -138 5 -33 13 -64 17 -68 4 -4 31 -15
58 -24 28 -9 70 -27 93 -41 l44 -25 56 40 c44 32 64 40 99 40 60 0 86 -16 170
-102 101 -105 110 -169 33 -262 l-40 -48 24 -46 c13 -26 31 -71 40 -99 10 -29
21 -53 24 -53 36 0 126 -22 147 -36 14 -9 35 -35 47 -57 17 -35 20 -55 16
-146 -3 -83 -8 -113 -23 -139 -22 -36 -86 -72 -131 -72 -55 0 -73 -11 -85 -49
-6 -20 -25 -64 -42 -98 l-30 -62 30 -38 c17 -21 35 -48 42 -60 15 -30 14 -108
-3 -142 -21 -39 -151 -159 -182 -167 -54 -14 -111 2 -165 45 -35 27 -58 39
-68 35 -9 -4 -54 -22 -101 -40 -90 -35 -97 -42 -99 -112 -1 -33 -23 -86 -45
-108 -34 -33 -77 -44 -173 -44 -164 1 -209 34 -228 168 l-10 75 -70 29 c-38
17 -82 35 -96 40 -23 10 -32 6 -78 -30 -99 -78 -160 -69 -268 40 -67 67 -102
125 -97 156 1 6 2 23 3 36 0 13 22 50 48 81 44 55 46 59 34 89 -7 17 -23 58
-36 91 -24 65 -32 70 -115 80 -108 13 -140 63 -140 217 0 159 37 210 165 223
l64 7 17 52 c9 28 27 72 41 99 l23 47 -41 55 c-48 64 -61 123 -36 171 8 16 51
64 94 106 111 107 159 114 259 37 l51 -39 76 35 c42 20 90 38 106 41 28 6 31
10 37 65 8 68 31 112 76 139 28 17 51 20 141 20 69 0 119 -5 141 -14z"/>
<path d="M3091 6234 c-89 -24 -171 -74 -246 -149 -115 -115 -165 -234 -165
-395 0 -161 50 -280 165 -395 113 -114 236 -165 395 -165 155 0 276 49 390
157 117 110 183 272 174 428 -8 150 -56 258 -164 366 -81 82 -158 128 -257
154 -72 19 -221 18 -292 -1z"/>
<path d="M5590 4786 c-173 -49 -310 -198 -340 -374 -40 -228 123 -469 351
-521 109 -25 245 -5 341 52 107 62 198 200 220 331 36 220 -118 453 -337 510
-70 19 -172 19 -235 2z"/>
<path d="M3653 3386 c-66 -21 -127 -62 -172 -113 -165 -187 -108 -475 117
-585 61 -30 74 -33 162 -33 82 0 103 4 152 27 74 34 152 112 186 186 24 50 27
69 27 157 0 88 -3 107 -27 157 -34 74 -113 152 -186 186 -69 31 -192 40 -259
18z"/>
</g>
</svg>
